<?xml version="1.0" standalone="no"?><!DOCTYPE svg PUBLIC "-//W3C//DTD SVG 1.1//EN" "http://www.w3.org/Graphics/SVG/1.1/DTD/svg11.dtd"><svg t="1566618695122" class="icon" viewBox="0 0 1024 1024" version="1.1" xmlns="http://www.w3.org/2000/svg" p-id="2022" width="64" height="64" xmlns:xlink="http://www.w3.org/1999/xlink"><defs><style type="text/css"></style></defs><path d="M460.8 0h102.4v153.8304h-102.4V0z m51.2 818.6368c-222.0288 0-409.6-117.504-409.6-256.5632 0-73.9072 52.736-144.6912 144.6656-194.2016C331.4432 322.4576 393.5232 242.9696 409.6 153.6V0h-102.4v102.528c0 71.8592-41.6 138.88-108.5696 174.9504C72.3968 345.4464 0 449.1776 0 562.0736c0 160.7168 143.4112 293.376 347.1616 340.5312A204.288 204.288 0 0 0 307.2 1023.8976h102.4a102.6304 102.6304 0 0 1 102.4-102.6304c56.4736 0 102.4 46.0288 102.4 102.6304h102.4c0-113.1776-91.8784-205.2608-204.8-205.2608z m313.344-541.1584C758.4 241.408 716.8 174.3872 716.8 102.528V0h-102.4v153.6c16.0768 89.3696 78.1312 168.8576 162.5088 214.272C868.864 417.408 921.6 488.1664 921.6 562.0736c0 110.3616-118.2976 206.8992-278.016 242.1504a257.9968 257.9968 0 0 1 85.2992 83.9936C904.4992 831.8976 1024 708.7104 1024 562.0736c0-112.896-72.3968-216.6272-198.656-284.5952z" fill="#595C60" p-id="2023"></path></svg>