<?xml version="1.0" standalone="no"?><!DOCTYPE svg PUBLIC "-//W3C//DTD SVG 1.1//EN" "http://www.w3.org/Graphics/SVG/1.1/DTD/svg11.dtd"><svg t="1566619095920" class="icon" viewBox="0 0 1600 1024" version="1.1" xmlns="http://www.w3.org/2000/svg" p-id="3008" xmlns:xlink="http://www.w3.org/1999/xlink" width="100" height="64"><defs><style type="text/css"></style></defs><path d="M892.48 562.304l77.536-47.808c202.112-124.704 410.56-255.68 547.84-447.84L1462.912 21.024c-121.824 150.144-271.424 274.88-420.032 398.624-67.616 56.32-135.488 96.64-209.44 136.32a689.28 689.28 0 0 0 56.128 8.16c0.96-0.64 1.984-1.216 2.976-1.824" fill="#9ED37F" p-id="3009"></path><path d="M1555.712 98.048l-37.856-31.392c-137.28 192.192-345.728 323.136-547.84 447.84l-77.536 47.808-2.976 1.824c16.32 1.696 32.64 2.784 48.896 2.944A6823.04 6823.04 0 0 0 1400.256 243.68c56.64-43.264 113.088-88.352 155.456-145.632" fill="#7ABC50" p-id="3010"></path><path d="M889.504 564.16c-18.72-1.92-37.44-4.736-56.128-8.192-21.632 11.584-43.712 23.136-66.56 35.04-24.096 12.544-49.504 24.896-75.584 37.152 18.272 7.36 36.192 15.52 54.016 24.032 48.224-29.12 96.32-58.496 144.256-88.064" fill="#B3DD99" p-id="3011"></path><path d="M745.248 652.16c10.368 4.992 20.736 9.92 31.008 15.2a6216.96 6216.96 0 0 0 162.176-100.32 523.2 523.2 0 0 1-48.96-2.912c-47.904 29.6-96 58.976-144.224 88.064" fill="#9ED37F" p-id="3012"></path><path d="M745.248 652.16a924.416 924.416 0 0 0-54.016-24c-89.728 42.208-189.344 83.104-287.552 125.216a2621.472 2621.472 0 0 1 204.48-21.024c46.048-26.08 91.744-52.8 137.088-80.16" fill="#CCE8BA" p-id="3013"></path><path d="M670.688 729.056a5739.68 5739.68 0 0 0 105.568-61.696c-10.24-5.28-20.608-10.24-31.04-15.2-45.312 27.36-91.008 54.08-137.056 80.16a2716.832 2716.832 0 0 1 62.528-3.264" fill="#B3DD99" p-id="3014"></path><path d="M34.048 965.216c142.4-24.576 278.08-79.232 407.584-143.488a3451.456 3451.456 0 0 0 166.528-89.376c-68.416 4.352-136.64 11.328-204.48 21.024-109.984 47.136-218.016 95.84-307.84 149.632-26.048 15.616-52.352 34.752-64.032 62.624 0.736-0.128 1.504-0.32 2.24-0.416" fill="#DBF2CC" p-id="3015"></path><path d="M34.048 965.216l-2.24 0.416c-0.352 0.864-0.832 1.664-1.184 2.56 0 0-9.472 71.616 87.648 31.424 183.872-73.984 370.176-166.752 552.416-270.528-20.864 0.8-41.696 1.92-62.528 3.264-54.816 31.04-110.08 61.344-166.528 89.376-129.472 64.256-265.152 118.912-407.584 143.488" fill="#CCE8BA" p-id="3016"></path><path d="M805.92 566.4c38.816-39.872 71.136-86.304 111.008-125.376 24.128-23.616 50.976-44.192 76.736-65.984 117.184-99.104 212.064-222.624 329.6-321.152-11.424-15.52-22.304-31.136-21.152-49.6-224.832 183.488-391.04 429.376-607.84 622.08l1.28-0.256a2059.104 2059.104 0 0 0 71.296-35.104c6.944-3.616 13.408-7.072 20.224-10.656 6.4-4.384 12.544-9.312 18.848-13.92" fill="#5EAD2B" p-id="3017"></path><path d="M1336.96 73.472c-4.096-6.656-8.96-13.12-13.696-19.584-117.536 98.528-212.416 222.048-329.6 321.12-25.76 21.76-52.608 42.4-76.736 66.016-39.872 39.04-72.192 85.504-111.04 125.408 52.48-38.464 101.216-83.52 148.352-128.384L1336.96 73.472" fill="#448C15" p-id="3018"></path><path d="M1490.24 202.24c-0.448 0.768-0.64 1.632-1.152 2.368-7.296 11.04-19.104 18.176-30.496 24.992a4109.056 4109.056 0 0 0-262.016 170.72c-26.944 19.072-53.664 38.496-80.384 57.92l-48.16 34.88-85.536 62.08a1087.424 1087.424 0 0 0 137.664-73.792c21.568-13.76 42.656-28.256 64-42.4A2442.656 2442.656 0 0 1 1521.92 251.52a297.536 297.536 0 0 0-31.68-49.248" fill="#5EAD2B" p-id="3019"></path><path d="M1458.56 229.6c11.424-6.816 23.232-13.952 30.56-24.992 0.48-0.736 0.64-1.6 1.12-2.368-4.992-6.432-9.696-13.12-15.136-19.136a1445.28 1445.28 0 0 1-74.88 60.576A6802.528 6802.528 0 0 1 938.464 567.04c-10.336 6.624-20.992 12.864-31.392 19.424a1148.224 1148.224 0 0 0 75.456-31.264l85.536-62.08 48.128-34.912c26.752-19.392 53.44-38.784 80.448-57.856a4100.48 4100.48 0 0 1 261.984-170.752" fill="#448C15" p-id="3020"></path><path d="M796.064 573.696c-3.168 2.24-6.208 4.736-9.408 6.944l6.976-3.648c0.736-1.152 1.6-2.208 2.432-3.296M1039.04 408.48c25.408-25.28 47.456-53.888 74.56-77.28 25.408-21.984 54.784-38.88 81.28-59.552a642.272 642.272 0 0 0 48.192-42.752 2834.88 2834.88 0 0 0 172.8-180.8l-26.816-24.256L954.24 438.048c-38.4 36.576-77.728 73.376-119.36 106.624 71.904-39.68 145.952-78.304 204.192-136.192" fill="#7ABC50" p-id="3021"></path><path d="M1415.84 48.128a2843.264 2843.264 0 0 1-172.768 180.736c-15.52 14.88-31.264 29.568-48.192 42.752-26.496 20.672-55.872 37.6-81.28 59.584-27.136 23.36-49.184 52.032-74.56 77.28-58.24 57.888-132.288 96.48-204.16 136.192-12.704 10.112-25.696 19.712-38.816 29.024a58.784 58.784 0 0 0-2.464 3.296c89.76-46.944 169.696-91.136 249.28-157.344 135.296-112.704 271.2-226.464 386.496-359.232l-13.536-12.288" fill="#5EAD2B" p-id="3022"></path><path d="M749.44 549.632c45.856-40.576 88-85.664 129.728-130.624L1211.712 60.8 1176.064 12.672s-348.48 407.36-445.664 474.464c-0.128 0.096-0.32 0.128-0.416 0.224a1756.928 1756.928 0 0 1-114.912 102.464c29.376-6.08 58.112-15.36 86.688-24.64l47.68-15.552" fill="#B3DD99" p-id="3023"></path><path d="M749.44 549.632l37.984-12.384c148.896-150.112 279.776-319.136 434.4-462.784a2152 2152 0 0 1-10.112-13.664L879.168 419.008c-41.728 44.96-83.872 90.048-129.728 130.624" fill="#7ABC50" p-id="3024"></path><path d="M541.568 684.288c18.56-9.472 37.088-19.04 55.36-29.12 27.584-15.136 54.88-31.04 80.864-48.864a750.88 750.88 0 0 0 71.648-56.672l-47.68 15.552c-28.576 9.28-57.312 18.56-86.72 24.64a1301.824 1301.824 0 0 1-88.96 67.072c1.28 1.568 2.784 2.976 3.968 4.64 4.992 6.976 8.576 14.72 11.52 22.72" fill="#CCE8BA" p-id="3025"></path><path d="M596.896 655.2c-18.24 10.048-36.768 19.616-55.36 29.088 1.12 2.976 2.432 5.888 3.232 8.992a4614.24 4614.24 0 0 0 146.464-65.12l4.352-2.08-1.344 0.288a2041.248 2041.248 0 0 0 93.184-89.12l-37.984 12.384a749.92 749.92 0 0 1-71.68 56.64 950.752 950.752 0 0 1-80.864 48.928" fill="#9ED37F" p-id="3026"></path><path d="M541.568 684.288a94.528 94.528 0 0 0-11.52-22.752c-1.184-1.664-2.688-3.072-3.968-4.64-111.232 75.776-233.376 130.176-366.816 140.352-27.392 2.112-55.84 2.496-80.672 14.272-19.616 9.28-36.032 28.384-38.784 49.088a2000.32 2000.32 0 0 0 501.76-176.32" fill="#DBF2CC" p-id="3027"></path><path d="M403.68 753.376c47.136-20.224 94.56-40.16 141.12-60.096-0.832-3.072-2.112-5.984-3.232-8.992a1999.904 1999.904 0 0 1-501.76 176.32c-0.736 5.504-0.704 11.104 0.736 16.704a280 280 0 0 0 83.424 9.472c83.84-47.424 180.928-91.072 279.68-133.44" fill="#C1E2AC" p-id="3028"></path><path d="M861.76 63.264c10.816 115.68-13.28 233.728-65.536 337.44 9.216-8.896 18.272-17.92 26.144-28.032 28.32-36.384 39.264-82.88 49.472-127.84 16.704-73.568 33.28-148.864 25.888-223.744-19.968 0-39.904-0.064-59.872-0.096 0.832 13.92 0.736 27.84 0.896 41.792 7.648 0.736 15.36 1.024 23.008 0.48" fill="#7ABC50" p-id="3029"></path><path d="M910.72 21.12l-13.024-0.032c7.392 74.88-9.152 150.208-25.888 223.744-10.208 44.96-21.12 91.488-49.44 127.84a267.776 267.776 0 0 1-26.176 28.064 625.216 625.216 0 0 1-34.784 61.312c33.696-29.824 79.488-76.416 128.352-128.48 4.32-10.784 8.256-21.76 11.712-32.8 28.16-90.016 28.864-187.424 9.216-279.68" fill="#5EAD2B" p-id="3030"></path><path d="M811.264 359.936c42.528-91.232 36.96-196.384 29.28-296.992a138.528 138.528 0 0 1-37.536-8.256c-1.184 165.44-46.496 330.08-128.8 473.6 53.12-50.144 106.24-102.336 137.056-168.352" fill="#9ED37F" p-id="3031"></path><path d="M861.76 63.264a138.144 138.144 0 0 1-21.216-0.32c7.648 100.608 13.248 205.76-29.28 296.96-30.784 66.048-83.936 118.208-137.056 168.416-4.032 7.04-7.712 14.272-11.904 21.216a1783.744 1783.744 0 0 0 67.68-62.176l0.416-0.256c8.512-5.856 19.04-14.496 31.008-25.088 76.512-116.768 113.344-259.616 100.352-398.72" fill="#5EAD2B" p-id="3032"></path><path d="M932.128 710.4c7.104 4.032 12.096 10.08 15.584 17.056 159.168-48.64 319.872-92.608 481.056-133.92 45.824-11.744 91.872-23.488 136.32-39.424a157.536 157.536 0 0 0-10.912-69.792 19402.88 19402.88 0 0 0-495.456 154.112c-74.656 24.32-149.12 49.184-223.552 74.24l45.312-6.304c17.44-2.4 36.32-4.576 51.648 4.064" fill="#B3DD99" p-id="3033"></path><path d="M947.712 727.456c2.336 4.672 4.128 9.696 4.96 15.04 200.96-60.16 405.088-111.296 608.512-162.016a153.28 153.28 0 0 0 3.936-26.4c-44.48 16-90.56 27.68-136.352 39.456-161.152 41.312-321.92 85.28-481.056 133.92" fill="#7ABC50" p-id="3034"></path><path d="M737.6 795.072c69.6-23.68 139.712-46.08 210.08-67.616a38.592 38.592 0 0 0-15.552-17.024c-15.328-8.64-34.208-6.496-51.648-4.064l-45.312 6.304c-45.856 15.424-91.68 30.848-137.504 46.4 7.68 2.24 15.04 5.248 21.248 10.112 8.576 6.624 14.208 15.904 18.656 25.92" fill="#CCE8BA" p-id="3035"></path><path d="M743.2 809.28c69.312-23.68 139.2-45.76 209.472-66.784a52.288 52.288 0 0 0-4.96-15.04 7136.96 7136.96 0 0 0-210.144 67.616c2.08 4.64 3.968 9.408 5.632 14.208" fill="#B3DD99" p-id="3036"></path><path d="M295.04 966.624c144.704-64.32 292.64-120.608 442.56-171.52-4.48-10.016-10.112-19.296-18.688-25.92a62.912 62.912 0 0 0-21.248-10.112c-39.616 13.44-79.264 26.816-118.88 40.32-33.76 11.52-67.488 22.944-101.248 34.432a4287.104 4287.104 0 0 1-328.256 152.928c-1.28 8.576-2.016 17.248-1.408 25.888 2.144 0.832 4.384 1.12 6.56 1.824 48.8-6.56 95.232-27.68 140.608-47.84" fill="#DBF2CC" p-id="3037"></path><path d="M154.432 1014.432c53.024 16.576 110.56-9.024 161.408-33.28 138.88-66.272 281.92-122.272 427.328-171.872a174.528 174.528 0 0 0-5.6-14.208c-149.888 50.976-297.824 107.264-442.528 171.552-45.376 20.192-91.84 41.28-140.608 47.808" fill="#CCE8BA" p-id="3038"></path><path d="M1148.64 598.08l101.856-35.424c23.264-8.064 46.56-16.192 68.864-26.56 67.808-31.68 123.84-83.488 177.344-135.84 21.248-20.8 42.752-42.656 59.072-67.296a205.568 205.568 0 0 1-20.608-43.264 490824.96 490824.96 0 0 1-143.392 123.2c-25.28 21.664-50.464 43.36-76.192 64.48-43.456 35.648-88.576 69.888-138.816 95.04-37.888 18.976-78.176 32.544-117.28 48.768-41.28 17.12-81.44 37.312-121.6 57.376l46.88-15.584c52.48-25.984 108.352-45.6 163.84-64.896" fill="#9ED37F" p-id="3039"></path><path d="M1250.496 562.656c-33.92 11.84-67.936 23.616-101.888 35.424-55.488 19.296-111.36 38.88-163.84 64.896 24.64-8.224 49.28-16.512 73.952-24.576a19550.016 19550.016 0 0 1 308.224-97.248l195.552-171.712c3.2-2.816 6.592-6.016 7.072-10.24 0.48-4.384-2.4-8.32-4.992-11.904-3.296-4.544-5.888-9.536-8.8-14.336-16.32 24.64-37.856 46.496-59.104 67.296-53.44 52.352-109.536 104.128-177.28 135.808-22.336 10.4-45.632 18.496-68.896 26.592M1524.256 622.208c-2.24-3.488-4.704-7.136-8.448-8.96-178.976 24.32-512.384 114.624-512.384 114.624 40-8 80.992-11.776 121.696-15.2 146.112-12.32 292.48-22.08 438.912-29.216l-39.744-61.248" fill="#7ABC50" p-id="3040"></path><path d="M1504.8 611.808c-26.688 0.832-53.44 1.696-80.16 2.88-140.96 35.584-281.696 72.544-421.184 113.216 0 0 333.44-90.304 512.352-114.656-3.36-1.632-7.264-1.6-11.008-1.44" fill="#5EAD2B" p-id="3041"></path><path d="M952.64 742.496l50.816-14.624s333.408-90.304 512.384-114.656" fill="#7ABC50" p-id="3042"></path></svg>